<svg xmlns="http://www.w3.org/2000/svg" width="220" height="34" viewBox="0 0 220 34">
  <g fill="#FFF" fill-rule="nonzero">
    <path
      d="M68.83 15v-.07c0-6.955-5.535-12.5-13-12.5S42.74 8.055 42.74 15v.07c0 6.955 5.535 12.525 13 12.525.345 0 .68 0 1-.05a12.285 12.285 0 0 0 2.87 3.61A13.47 13.47 0 0 0 65.38 34l3.72-5.5c-3 .245-4.88-1.44-5.95-3.04A12.395 12.395 0 0 0 68.83 15zm-6.85.07c0 3.5-2.455 6.47-6.16 6.47S49.625 18.5 49.625 15v-.07c0-3.5 2.455-6.47 6.125-6.47S62 11.5 62 15l-.02.07zM8.06 27.405h5.82l4.825-13.88 4.855 13.88h5.82l8.06-24.28h-6.925l-4.2 13.95-4.65-14.02H15.91l-4.65 14.02-4.2-13.95H0l8.06 24.28M75.835 27.235h7.51l4.65-7.27 4.615 7.27h7.68l-8.265-12.33 7.92-11.78h-7.51L88.13 9.91l-4.27-6.785h-7.68L84.1 14.97l-8.265 12.265M129.655 11.425v-.07c0-2.375-.725-4.235-2.135-5.615-1.62-1.655-4.17-2.615-7.855-2.615h-11.4v24.11h6.685V19.93h2.925l4.855 7.3h7.72l-5.75-8.405c3-1.275 4.96-3.72 4.96-7.405l-.005.005zm-6.71.41c0 1.755-1.31 2.86-3.58 2.86h-4.415V8.91h4.375c2.24 0 3.615.965 3.615 2.86l.005.065zM152.395 0h3.635v31.31h-3.635zM142.5 13.975a2.095 2.095 0 1 0 0-4.19 2.095 2.095 0 0 0 0 4.19M142.5 21.5a2.095 2.095 0 1 0 0-4.19 2.095 2.095 0 0 0 0 4.19M148.24 0h1.315v31.31h-1.315zM169.135 14.605c-.05 0-.355 0-.765.04-.41.04-.575 0-1.11 0a1.952 1.952 0 0 1-.025-.32c.001-.11.01-.22.025-.33.205 0 2.6.075 3.045.075.445 0 1.185-.04 2.255-.09a1 1 0 0 1 0 .18c.007.154 0 .308-.025.46-.63-.011-1.259.014-1.885.075-.025.295-.065 1.53-.065 2.155a16 16 0 0 0 .065 2.32c.19 0 .79-.04 1.035-.04.155 0 .305 0 .84.025.029.126.042.256.04.385a1.28 1.28 0 0 1 0 .205c-.83-.04-.83-.04-1.25-.04-1.335-.03-2.67.011-4 .125V19.49a2.69 2.69 0 0 1 0-.305h1.365a5.28 5.28 0 0 0 .56-.05c.025-.345.065-1.57.065-2.32 0-.445-.04-1.71-.075-2.205l-.095-.005zM178.61 14.3a2.7 2.7 0 0 1 1.5 2.615c0 1.8-1.39 3.045-3.39 3.045s-3.44-1.3-3.44-3a3.075 3.075 0 0 1 1.66-2.675 3.5 3.5 0 0 1 1.67-.46 5 5 0 0 1 2 .475zm-3.24.55a2 2 0 0 0-.69 1.655c-.065.757.1 1.517.47 2.18.32.518.891.828 1.5.815a2.06 2.06 0 0 0 1.735-.945 3.31 3.31 0 0 0 .42-1.735 2.21 2.21 0 0 0-.47-1.43c-.5-.725-1-1.07-1.645-1.07a2.27 2.27 0 0 0-1.315.53h-.005zM182.595 17.205c.24 0 .7-.025.955-.025 1.835 0 3.1 1 3.1 2.475 0 1.57-1.605 3-3.39 3a2.735 2.735 0 0 1-1.685-.535.785.785 0 0 1-.345-.69.72.72 0 0 1 .75-.815c.5 0 .805.24.805.61a1 1 0 0 1-.1.395.94.94 0 0 0-.1.33c0 .14.255.24.635.24.463.018.913-.152 1.25-.47.5-.562.778-1.287.78-2.04a2.44 2.44 0 0 0-.55-1.605 1.57 1.57 0 0 0-1.16-.42c-.42 0-.5.025-1.43.5l-.23.115c.065-1.225.075-1.415.09-3.39 0-.635.18-.84.805-.84l2.6.065c.255 0 .345-.115.395-.5h.475a3.165 3.165 0 0 0 0 .5v.395c0 .5-.33.79-1 .79l-1.925-.075c-.266 0-.53.03-.79.09 0 .165 0 .205-.04.5 0 .215-.025.41-.025.55.003.265.028.53.075.79l.055.06zM190.295 18.965a.945.945 0 0 1-.92.92.865.865 0 0 1-.905-.905.945.945 0 0 1 .945-.92.88.88 0 0 1 .88.905zM196.03 18.79a3.76 3.76 0 0 1-1.785.5 2.78 2.78 0 0 1-1.54-.5 2.68 2.68 0 0 1-.93-2c0-1.5 1.39-2.97 2.805-2.97a3 3 0 0 1 2 .805c.69.65 1.07 1.77 1.07 3.135a5.255 5.255 0 0 1-1.725 4.125 3.135 3.135 0 0 1-2.025.765c-1 0-1.81-.5-1.81-1.185a.75.75 0 0 1 .79-.815c.42 0 .725.24.725.575 0 .23-.065.33-.42.725a.145.145 0 0 0-.05.125c0 .09.205.155.445.155a2.625 2.625 0 0 0 1.745-.88c.535-.56.79-1.415.79-2.575l-.085.015zm-2.855-2.5a4.25 4.25 0 0 0 .295 1.735 1.5 1.5 0 0 0 1.235.75c.51-.035.974-.31 1.25-.74a2.78 2.78 0 0 0 .295-1.34c0-1.415-.665-2.395-1.62-2.395-.83.015-1.455.865-1.455 2v-.01zM203.17 14.045a6 6 0 0 0 .61.04h.28a3.13 3.13 0 0 1 .32 0c.091.001.182.015.27.04v.24a1.5 1.5 0 0 1-.04.305 1.23 1.23 0 0 0-.33-.05 1.32 1.32 0 0 0-.205 0h-.88v2.765a12.03 12.03 0 0 0 .05 1.795h.04l.305.05c.147.024.296.033.445.025h.46v.61a10.9 10.9 0 0 0-1.595-.125c-.255 0-.46 0-.855.04-.395.04-.5.04-.69.04a2.61 2.61 0 0 1-.535-.05 2.69 2.69 0 0 0 .025-.55c.155 0 .23.025.305.025h.5a.68.68 0 0 0 .14 0 .31.31 0 0 0 .1 0V18.15c0-.355-.025-.625-.025-.78 0-.155 0-.42.025-.78 0-.575.025-.92.025-1.085v-.855c-.14 0-.33-.025-.55-.025-.22 0-.435 0-.6.025a1.33 1.33 0 0 1-.025-.19v-.345a.305.305 0 0 1 .18-.065c.08-.006.16-.006.24 0 .106.019.213.027.32.025h.42c.075-1.695.155-2.025.55-2.575a2.225 2.225 0 0 1 1.875-1c.97 0 1.695.46 1.695 1.06a.65.65 0 0 1-.665.69c-.37 0-.65-.215-.65-.5a.91.91 0 0 1 .105-.385.28.28 0 0 0 0-.1c0-.165-.305-.28-.725-.28a.73.73 0 0 0-.75.435 6 6 0 0 0-.165 1.645c-.003.23.01.461.04.69l-.04.29z" />
    <path
      d="M207.905 14.785a1.8 1.8 0 0 0 0 .255 3.125 3.125 0 0 1 2.4-1.155c.92 0 1.325.295 1.58 1.135a3.045 3.045 0 0 1 2.33-1.135c.84 0 1.54.42 1.655 1 .04.18.05 1.225.05 3.62.004.23-.004.46-.025.69h.805c.025.27.04.385.05.575-.23-.04-1.085-.065-1.875-.065a6.57 6.57 0 0 0-1.085.065.655.655 0 0 1 0-.125 1.65 1.65 0 0 1 .025-.42c.163-.04.332-.057.5-.05.116-.001.23.007.345.025l-.04-2.79a4.865 4.865 0 0 0-.125-1.5c-.065-.19-.435-.345-.83-.345a2 2 0 0 0-1.465.725c-.23.27-.255.42-.255 1.315v2.68a.465.465 0 0 1 .18-.025c.137.003.275.017.41.04h.075a.5.5 0 0 0 .165-.04c0 .18.021.36.065.535-.2-.04-.406-.054-.61-.04H211.4c-.255 0-1.26.04-1.58.05v-.33a.335.335 0 0 1 0-.09v-.13h.905a95.422 95.422 0 0 1-.065-3.415c0-1-.155-1.225-.78-1.225-.457-.006-.9.152-1.25.445-.575.395-.65.535-.65 1.16V19.24c.068-.006.137-.006.205 0a1.39 1.39 0 0 1 .23 0c.055.005.11.005.165 0a.355.355 0 0 0 .1 0v.545a22.535 22.535 0 0 0-1.4-.075H205.71v-.55l.215-.025h.355c.1 0 .23-.025.37-.05v-.14-.725-1.925c0-.42.025-1.5.04-1.695l-.945.025c-.115 0-.165-.05-.165-.18v-.1a1.5 1.5 0 0 0 0-.305c.215.025.765.05 1.07.05.403.026.808-.035 1.185-.18v.875h.07z" />
  </g>
</svg>
