<svg version="1.0" xmlns="http://www.w3.org/2000/svg" width="700.000000pt" height="700.000000pt" viewBox="0 33.0 700.000000 733.000000" preserveAspectRatio="xMidYMid meet">
<metadata>
Created by potrace 1.12, written by Peter Selinger 2001-2015
</metadata>
<g transform="translate(0.000000,733.000000) scale(0.100000,-0.100000)" fill="#000000" stroke="none">
<path d="M2334 6661 c-2 -2 -4 -78 -4 -168 l0 -163 -497 -2 -498 -3 -3 -327
-2 -328 -163 -2 -162 -3 -5 -165 -5 -165 -163 -5 -162 -5 0 -1660 0 -1660 162
-5 163 -5 5 -165 5 -165 162 -3 163 -2 2 -328 3 -327 497 -3 498 -2 2 -165 3
-166 1165 0 1165 0 3 166 2 165 330 0 330 0 2 163 3 162 165 5 165 5 3 162 2
163 163 2 162 3 5 165 5 165 163 5 162 5 0 1660 0 1660 -162 5 -163 5 -5 165
-5 165 -162 3 -163 2 -2 163 -3 162 -165 5 c-156 5 -165 6 -166 25 -1 11 -2
84 -3 163 l-1 142 -330 0 -330 0 -2 165 -3 166 -1163 2 c-640 1 -1166 0 -1168
-2z m2334 -496 l-3 -165 165 -2 165 -3 5 -165 5 -165 162 -3 163 -2 2 -163 3
-162 165 -5 165 -5 3 -162 2 -163 163 -2 162 -3 0 -1330 0 -1330 -165 -3 -165
-2 0 -163 0 -162 -165 -5 -165 -5 -3 -162 -2 -163 -163 -2 -162 -3 -5 -165 -5
-165 -162 -3 -163 -2 0 -165 0 -165 -1170 0 -1170 0 0 165 0 165 -327 2 -328
3 -5 165 -5 165 -167 5 -167 5 2 327 2 328 -165 2 -165 3 -3 1162 -2 1163 166
2 165 3 0 497 -1 498 168 2 167 3 5 165 5 165 328 3 327 2 0 165 0 165 1171 0
1170 0 -3 -165z"></path>
<path d="M2335 5318 c-3 -7 -4 -755 -3 -1663 l3 -1650 333 -3 332 -2 0 1665 0
1665 -330 0 c-255 0 -332 -3 -335 -12z"></path>
<path d="M4000 3665 l0 -1665 333 2 332 3 0 1660 0 1660 -332 3 -333 2 0
-1665z"></path>
</g>
</svg>
