<svg version="1.0" xmlns="http://www.w3.org/2000/svg" width="700.000000pt" height="700.000000pt" viewBox="0 0 700.000000 700.000000" preserveAspectRatio="xMidYMid meet">
<metadata>
Created by potrace 1.12, written by Peter Selinger 2001-2015
</metadata>
<g transform="translate(0.000000,700.000000) scale(0.100000,-0.100000)" fill="#000000" stroke="none">
<path d="M2337 6703 c-4 -3 -7 -68 -7 -144 l0 -138 -142 -3 -143 -3 -3 -142
-3 -143 -287 -2 -287 -3 -5 -145 -5 -145 -142 -3 -143 -3 0 -289 0 -289 -147
-3 -148 -3 -3 -142 -3 -142 -142 -3 -142 -3 0 -1310 0 -1310 142 -3 143 -3 2
-432 3 -432 290 -5 290 -5 3 -143 3 -142 132 0 c72 0 137 -4 144 -8 9 -5 13
-51 15 -147 l3 -140 287 -3 287 -2 3 -143 3 -142 1165 0 1165 0 3 142 3 142
142 3 142 3 3 141 c2 137 3 142 25 148 12 3 142 6 290 6 l267 0 0 145 0 145
145 0 145 0 0 145 0 144 148 3 147 3 3 287 2 287 143 3 142 3 0 1310 0 1310
-142 3 -142 3 -3 142 -3 142 -147 3 -148 3 0 144 0 144 -142 3 -143 3 -3 143
-3 142 -132 0 c-72 0 -137 4 -144 8 -9 5 -13 51 -15 147 l-3 140 -142 3 -142
3 -3 142 -3 142 -142 3 -142 3 -3 142 -3 142 -1161 3 c-638 1 -1164 -1 -1167
-5z m1965 -289 l67 -7 3 -141 3 -141 293 -3 292 -2 0 -290 0 -290 145 0 145 0
0 -145 0 -145 290 0 290 0 0 -290 0 -290 78 0 c42 0 107 -3 145 -7 l67 -6 0
-1157 0 -1157 -82 -6 c-46 -4 -111 -7 -145 -7 l-63 0 0 -290 0 -290 -145 0
-145 0 0 -145 0 -145 -435 0 -435 0 0 -132 c0 -73 -4 -138 -8 -145 -5 -9 -51
-13 -147 -15 l-140 -3 -3 -142 -3 -143 -869 0 -869 0 -3 142 -3 143 -292 3
-293 2 0 145 0 145 -145 0 -145 0 0 145 0 145 -290 0 -290 0 0 290 0 290 -62
0 c-35 0 -100 3 -145 7 l-83 6 0 1157 0 1157 68 6 c37 4 102 7 145 7 l77 0 0
290 0 290 145 0 145 0 0 145 0 145 145 0 145 0 0 145 0 145 290 0 290 0 0 295
0 295 953 0 c523 0 982 -3 1019 -6z"></path>
<path d="M2332 3648 l3 -1893 290 0 290 0 3 143 3 142 289 0 290 0 0 145 0
145 145 0 145 0 0 145 0 145 293 2 292 3 3 141 3 141 76 7 c42 3 107 6 145 6
l68 0 0 145 0 145 290 0 289 0 3 143 3 142 143 3 142 3 0 144 0 144 -142 3
-143 3 -5 143 -5 143 -287 -1 -287 -1 -3 148 -3 148 -142 3 -142 3 -3 142 -3
142 -292 3 -293 2 0 145 0 145 -145 0 -145 0 0 145 0 145 -290 0 -290 0 0 145
0 145 -295 0 -295 0 2 -1892z m876 1165 l3 -143 289 0 289 0 3 -147 3 -148
142 -3 142 -3 3 -142 3 -142 293 -3 292 -2 0 -145 0 -144 143 -3 142 -3 0
-140 0 -140 -144 -5 -143 -5 1 -142 2 -143 -293 -2 -293 -3 -3 -142 -3 -143
-287 -2 -287 -3 -3 -142 -3 -142 -142 -3 -142 -3 -5 -145 -5 -145 -195 -3
c-107 -2 -237 0 -287 3 l-93 7 0 1309 0 1309 288 -2 287 -3 3 -142z"></path>
</g>
</svg>
